<?xml version="1.0" encoding="utf-8"?>
<!-- Generator: Adobe Illustrator 17.0.0, SVG Export Plug-In . SVG Version: 6.00 Build 0)  -->
<!DOCTYPE svg PUBLIC "-//W3C//DTD SVG 1.1//EN" "http://www.w3.org/Graphics/SVG/1.1/DTD/svg11.dtd">
<svg version="1.1" id="Capa_1" xmlns="http://www.w3.org/2000/svg" xmlns:xlink="http://www.w3.org/1999/xlink" x="0px" y="0px"
	 width="320px" height="320px" viewBox="0 0 320 320" enable-background="new 0 0 320 320" xml:space="preserve">
<rect fill="#F44336" width="320" height="320"/>
<text transform="matrix(1 0 0 1 40.1211 296.4936)" fill="#F2F2F2" font-family="'MyriadPro-Regular'" font-size="277.6973">G</text>
<ellipse transform="matrix(0.6118 -0.791 0.791 0.6118 62.6277 209.6121)" fill="#F2F2F2" cx="244.873" cy="40.999" rx="31.9" ry="33.1"/>
<ellipse transform="matrix(0.6118 -0.791 0.791 0.6118 36.4443 211.6117)" fill="#F2F2F2" cx="233.819" cy="68.675" rx="21.4" ry="35.4"/>
<ellipse transform="matrix(0.6118 -0.791 0.791 0.6118 41.1182 250.3584)" fill="#F2F2F2" cx="275.632" cy="83.287" rx="21.4" ry="35.4"/>
<ellipse transform="matrix(0.6118 -0.791 0.791 0.6118 35.4134 172.7512)" fill="#F2F2F2" cx="193.711" cy="50.295" rx="21.4" ry="35.4"/>
<polygon fill="#B2B2B2" points="61.4,100 28.2,79.6 29.3,40.7 63.5,22.1 96.7,42.5 95.6,81.4 "/>
<polygon fill="#F2F2F2" points="64.4,92 31.2,71.6 32.3,32.7 66.5,14.1 99.7,34.5 98.6,73.4 "/>
</svg>
